<svg width="140" height="140" viewBox="0 0 140 140" fill="none" xmlns="http://www.w3.org/2000/svg">
<g clip-path="url(#clip0_135_80)">
<path d="M4.2002 123.2V9.80001C4.2002 5.60001 5.6002 4.20001 9.8002 4.20001H130.2C134.4 4.20001 135.8 7.00001 135.8 11.2V130.2C135.8 133 135.8 135.8 130.2 135.8H16.8002L4.2002 123.2Z" fill="#90B1DE" stroke="#8B75EE" stroke-width="12"/>
<path d="M8.40039 8.40002V121.8L18.2004 131.6H131.6V8.40002H8.40039Z" fill="#8B75EE"/>
<path d="M39.1996 86.8C33.5996 86.8 33.5996 89.6 33.5996 92.4V135.8H106.4V92.4C106.4 89.6 105 86.8 100.8 86.8H39.1996ZM53.1996 92.4C62.9996 92.4 61.5996 96.6 61.5996 96.6V121.8C61.5996 121.8 62.9996 126 53.1996 126C44.7996 126 46.1996 121.8 46.1996 121.8V96.6C46.1996 96.6 44.7996 92.4 53.1996 92.4Z" fill="#999999" stroke="#555555" stroke-width="16"/>
<path d="M116.2 5.59998H23.7998V19.6H116.2V5.59998Z" fill="#FF0000" fill-opacity="0.7"/>
<path d="M116.2 19.6H23.7998V78.4H116.2V19.6Z" fill="#EEEEEE"/>
<path d="M19.6002 12.6H11.2002V21H19.6002V12.6Z" fill="#8B75EE"/>
<path d="M29.4004 65.8H110.6M29.4004 49H110.6M29.4004 33.6H110.6" stroke="#BBBBBB" stroke-width="16"/>
<path d="M64.3996 112L126 44.8C126 44.8 131.6 46.2 134.4 50.4C137.2 53.2 137.2 57.4 137.2 57.4L76.9996 121.8L61.5996 126L64.3996 112Z" fill="#CF9100" stroke="#333333" stroke-width="16"/>
<path d="M124.6 50.4L68.5996 112L71.3996 113.4L127.4 51.8L124.6 50.4Z" fill="#EEEEEE"/>
<path d="M61.5996 126L67.1996 124.6L62.9996 119L61.5996 126Z" fill="#333333"/>
</g>
<defs>
<clipPath id="clip0_135_80">
<rect width="140" height="140" fill="white"/>
</clipPath>
</defs>
</svg>
