<svg width="140" height="147" viewBox="0 0 140 147" fill="none" xmlns="http://www.w3.org/2000/svg">
<path d="M135.274 132.214L100.287 95.4782C107.542 85.7538 111.867 73.5046 111.867 60.1945C111.868 28.5671 87.4494 2.92822 57.3281 2.92822C27.2068 2.92822 2.78906 28.5671 2.78906 60.1945C2.78906 91.8219 27.207 117.461 57.3284 117.461C70.0047 117.461 81.6709 112.919 90.9319 105.302L125.918 142.038C128.502 144.75 132.69 144.75 135.274 142.038C137.857 139.325 137.857 134.927 135.274 132.214Z" fill="#E24D56"/>
<path d="M57.3286 104.186C80.4676 104.186 99.2255 84.4899 99.2255 60.1939C99.2255 35.8979 80.4676 16.2021 57.3286 16.2021C34.1895 16.2021 15.4316 35.8979 15.4316 60.1939C15.4316 84.4899 34.1895 104.186 57.3286 104.186Z" fill="#F2F2F2"/>
<path d="M137.246 130.144L103.969 95.2032C110.97 84.9597 114.656 72.9117 114.656 60.1945C114.656 27.0032 88.9391 0 57.3284 0C25.7176 0 0 27.0032 0 60.1948C0 93.3861 25.7173 120.389 57.3281 120.389C69.4395 120.389 80.914 116.518 90.6697 109.168L123.946 144.108C125.722 145.973 128.084 147 130.596 147C133.108 147 135.47 145.973 137.246 144.108C140.912 140.258 140.912 133.993 137.246 130.144ZM133.302 139.967C132.579 140.726 131.618 141.144 130.596 141.144C129.574 141.144 128.613 140.726 127.891 139.967L92.9042 103.231C92.3631 102.663 91.6489 102.373 90.9314 102.373C90.3271 102.373 89.7198 102.579 89.2125 102.996C80.0365 110.543 69.011 114.533 57.3286 114.533C28.7935 114.533 5.5784 90.1567 5.5784 60.1948C5.5784 30.2329 28.7932 5.85703 57.3286 5.85703C85.864 5.85703 109.079 30.2326 109.079 60.1948C109.079 72.4615 105.28 84.0381 98.0919 93.6729C97.2224 94.8383 97.3183 96.5021 98.3153 97.5492L133.302 134.285C134.793 135.851 134.793 138.4 133.302 139.967Z" fill="#4D4D4D"/>
<path d="M57.3283 13.2748C32.6886 13.2748 12.6426 34.3231 12.6426 60.1948C12.6426 86.0665 32.6886 107.114 57.3283 107.114C81.968 107.114 102.014 86.0662 102.014 60.1948C102.014 34.3228 81.9677 13.2748 57.3283 13.2748ZM57.3283 101.258C48.56 101.258 40.4564 98.2118 33.9264 93.0751L49.4508 76.7745C50.5399 75.6309 50.5399 73.7768 49.4508 72.6329C48.3617 71.4891 46.5959 71.4894 45.5065 72.6329L29.7002 89.2296C28.1911 87.6464 26.8055 85.9341 25.5573 84.1113L49.5974 58.8692C50.6865 57.7256 50.6868 55.8715 49.5974 54.7279C48.5083 53.5841 46.7427 53.5847 45.653 54.7279L22.5574 78.9783C19.7864 73.3461 18.2193 66.9588 18.2193 60.1945C18.2193 37.5522 35.7631 19.1312 57.3272 19.1312C78.8913 19.1312 96.435 37.5522 96.435 60.1945C96.4359 82.8368 78.8924 101.258 57.3283 101.258Z" fill="#4D4D4D"/>
<path d="M55.0622 44.8494L53.1509 46.8563C52.0618 47.9998 52.0615 49.854 53.1509 50.9975C53.6956 51.5694 54.4093 51.8551 55.1229 51.8551C55.8366 51.8551 56.5503 51.5692 57.095 50.9975L59.0063 48.9906C60.0954 47.8471 60.0957 45.9929 59.0063 44.8494C57.9172 43.7058 56.1516 43.7058 55.0622 44.8494Z" fill="#4D4D4D"/>
</svg>
