<?xml version="1.0" encoding="iso-8859-1"?>
<!-- Uploaded to: SVG Repo, www.svgrepo.com, Generator: SVG Repo Mixer Tools -->
<svg version="1.1" id="Layer_1" xmlns="http://www.w3.org/2000/svg" xmlns:xlink="http://www.w3.org/1999/xlink" 
	 viewBox="0 0 511.999 511.999" xml:space="preserve">
<path style="fill:#FCD577;" d="M105.188,503.58V168.524c0-71.868,50.285-132.014,117.595-147.141h66.429
	c67.321,15.127,117.606,75.273,117.606,147.141V503.58"/>
<path style="fill:#BA6B24;" d="M142.893,503.58V168.524c0-52.97,36.62-97.565,85.865-109.78h54.478
	c49.257,12.214,85.876,56.798,85.876,109.78V503.58"/>
<path style="fill:#CFDCE5;" d="M331.407,168.524c0-41.574-33.829-75.399-75.41-75.399c-41.574,0-75.398,33.823-75.398,75.399
	H331.407z"/>
<path style="fill:#FF6F52;" d="M145.309,415.173h-41.413c-7.916,0-14.333,6.417-14.333,14.333v74.075h70.079v-74.075
	C159.642,421.591,153.225,415.173,145.309,415.173z"/>
<path style="fill:#E25749;" d="M122.172,415.173h-18.275c-7.916,0-14.333,6.417-14.333,14.333v74.074h18.275v-74.074
	C107.839,421.589,114.256,415.173,122.172,415.173z"/>
<path style="fill:#FF6F52;" d="M408.102,415.173h-41.412c-7.916,0-14.333,6.417-14.333,14.333v74.075h70.079v-74.075
	C422.435,421.591,416.018,415.173,408.102,415.173z"/>
<path style="fill:#E25749;" d="M384.966,415.173h-18.275c-7.916,0-14.333,6.417-14.333,14.333v74.074h18.275v-74.074
	C370.633,421.589,377.05,415.173,384.966,415.173z"/>
<polygon style="fill:#FF6F52;" points="291.296,8.414 220.704,8.414 229.72,64.781 282.28,64.781 "/>
<path style="fill:#FCD577;" d="M322.96,281.491H189.046v116.688c0,36.309,29.435,65.744,65.744,65.744h2.428
	c36.309,0,65.744-29.435,65.744-65.744V281.491H322.96z"/>
<path style="fill:#7190A5;" d="M256.003,429.646c-18.021,0-32.681-14.659-32.681-32.68V281.491h65.36v115.475
	C288.682,414.985,274.022,429.646,256.003,429.646z"/>
<rect x="189.047" y="198.078" style="fill:#FF6F52;" width="133.918" height="50.484"/>
<path d="M255.997,84.711c-46.213,0-83.812,37.598-83.812,83.813c0,4.647,3.766,8.414,8.414,8.414h27.09
	c4.648,0,8.414-3.767,8.414-8.414c0-4.647-3.766-8.414-8.414-8.414h-18.151c4.151-32.979,32.372-58.571,66.457-58.571
	c34.093,0,62.319,25.593,66.471,58.571h-86.732c-4.648,0-8.414,3.767-8.414,8.414c0,4.647,3.766,8.414,8.414,8.414h95.671
	c4.648,0,8.414-3.767,8.414-8.414C339.822,122.309,302.218,84.711,255.997,84.711z"/>
<path d="M415.233,407.921V259.056h1.491c4.648,0,8.414-3.767,8.414-8.414c0-4.647-3.766-8.414-8.414-8.414h-1.491V234.3h1.491
	c4.648,0,8.414-3.767,8.414-8.414s-3.766-8.414-8.414-8.414h-1.491v-7.927h1.491c4.648,0,8.414-3.767,8.414-8.414
	s-3.766-8.414-8.414-8.414h-1.491v-24.191c0-46.597-20.327-90.712-55.771-121.035c-3.533-3.021-8.844-2.607-11.864,0.923
	c-3.02,3.531-2.607,8.843,0.923,11.863c31.702,27.121,49.883,66.576,49.883,108.249v24.191h-20.877v-24.191
	c0-53.366-34.501-99.915-84.794-115.813l3.333-20.841c12.263,3.587,23.978,8.785,34.907,15.566c1.381,0.857,2.913,1.265,4.428,1.265
	c2.814,0,5.564-1.411,7.158-3.979c2.45-3.949,1.235-9.135-2.714-11.586c-12.834-7.964-26.629-14.004-41.099-18.024l0.859-5.369
	c0.389-2.432-0.307-4.914-1.906-6.788C296.1,1.079,293.76,0,291.296,0h-70.593c-2.464,0-4.804,1.079-6.403,2.954
	c-1.599,1.875-2.295,4.356-1.906,6.788l0.859,5.373c-31.655,8.827-60.206,27.531-81.05,53.265
	c-22.848,28.212-35.431,63.776-35.431,100.144v24.191h-1.498c-4.648,0-8.414,3.767-8.414,8.414s3.766,8.414,8.414,8.414h1.498v7.927
	h-1.498c-4.648,0-8.414,3.767-8.414,8.414s3.766,8.414,8.414,8.414h1.498v7.928h-1.498c-4.648,0-8.414,3.767-8.414,8.414
	c0,4.647,3.766,8.414,8.414,8.414h1.498v148.862c-9.061,2.999-15.624,11.535-15.624,21.588v74.074c0,4.647,3.766,8.414,8.414,8.414
	h15.515c0.036,0,0.072,0.006,0.109,0.006h301.63c0.037,0,0.072-0.004,0.109-0.006h15.509c4.648,0,8.414-3.767,8.414-8.414v-74.074
	C430.849,419.456,424.29,410.92,415.233,407.921z M414.021,495.166h-53.25v-65.66c0-3.264,2.655-5.919,5.919-5.919h41.412
	c3.264,0,5.919,2.655,5.919,5.919L414.021,495.166L414.021,495.166z M398.405,406.759h-20.877V259.056h20.877V406.759z
	 M398.405,242.228h-20.877V234.3h20.877V242.228z M398.405,209.543v7.927h-20.877v-7.927H398.405z M360.699,168.524v24.191h-2.629
	c-4.648,0-8.414,3.767-8.414,8.414s3.766,8.414,8.414,8.414h2.629v7.927h-2.629c-4.648,0-8.414,3.767-8.414,8.414
	s3.766,8.414,8.414,8.414h2.629v7.928h-2.629c-4.648,0-8.414,3.767-8.414,8.414c0,4.647,3.766,8.414,8.414,8.414h2.629v148.531
	c-9.641,2.64-16.756,11.453-16.756,21.92v65.665H168.056v-65.665c0-10.465-7.113-19.277-16.751-21.918V259.056h2.623
	c4.648,0,8.414-3.767,8.414-8.414c0-4.647-3.766-8.414-8.414-8.414h-2.623V234.3h2.623c4.648,0,8.414-3.767,8.414-8.414
	s-3.766-8.414-8.414-8.414h-2.623v-7.927h2.623c4.648,0,8.414-3.767,8.414-8.414s-3.766-8.414-8.414-8.414h-2.623v-24.191
	c0-45.366,28.93-85.027,71.32-99.23c1.506,2.364,4.141,3.902,7.094,3.902h52.56c2.953,0,5.587-1.537,7.094-3.901
	C331.767,83.499,360.699,123.158,360.699,168.524z M97.978,429.506c0-3.264,2.655-5.919,5.919-5.919h41.412
	c3.264,0,5.919,2.655,5.919,5.919v65.66h-53.25V429.506z M281.429,16.828l-6.325,39.539h-38.21l-6.324-39.539H281.429z
	 M113.602,168.524c0-32.524,11.25-64.328,31.681-89.553c18.242-22.524,43.084-39.002,70.652-47.096l3.334,20.843
	c-22.882,7.293-43.447,21.428-58.502,40.403c-17.198,21.675-26.289,47.749-26.289,75.402v24.191h-20.876V168.524z M113.602,209.543
	h20.876v7.927h-20.876V209.543z M113.602,234.3h20.876v7.928h-20.876V234.3z M134.479,259.056v147.703h-20.876V259.056H134.479z"/>
<path d="M322.959,273.077H189.046c-4.648,0-8.414,3.767-8.414,8.414v32.072c0,4.647,3.766,8.414,8.414,8.414
	s8.414-3.767,8.414-8.414v-23.659h17.448v107.061c0,5.516,1.099,10.779,3.081,15.59c0.047,0.128,0.096,0.256,0.15,0.381
	c6.245,14.749,20.866,25.123,37.864,25.123c17.355,0,32.22-10.819,38.234-26.061c0.04-0.095,0.077-0.191,0.113-0.287
	c1.767-4.581,2.746-9.548,2.746-14.745V289.905h17.448V398.18c0,31.612-25.718,57.33-57.33,57.33h-2.427
	c-31.612,0-57.33-25.718-57.33-57.33v-56.57c0-4.647-3.766-8.414-8.414-8.414s-8.414,3.767-8.414,8.414v56.569
	c0,40.891,33.267,74.158,74.158,74.158h2.427c40.89,0,74.158-33.267,74.158-74.158V281.491
	C331.373,276.844,327.607,273.077,322.959,273.077z M268.531,378.862l11.737-11.736v23.471L268.531,378.862z M231.736,306.258
	l12.997,12.997l-12.997,12.997V306.258z M239.183,289.905h34.899l-17.45,17.45L239.183,289.905z M231.736,365.869l12.995,12.992
	l-12.995,12.992L231.736,365.869L231.736,365.869z M238.725,349.06l17.907-17.906l17.906,17.906l-17.907,17.903L238.725,349.06z
	 M268.532,319.254l11.737-11.737v23.474L268.532,319.254z M256.003,421.232c-8.112,0-15.301-4.005-19.71-10.136l20.338-20.334
	l19.597,19.594C271.878,416.903,264.438,421.232,256.003,421.232z"/>
<path d="M322.959,189.668H189.046c-4.648,0-8.414,3.767-8.414,8.414v50.488c0,4.647,3.766,8.414,8.414,8.414h133.913
	c4.648,0,8.414-3.767,8.414-8.414v-50.488C331.373,193.435,327.607,189.668,322.959,189.668z M272.264,206.496v33.66h-32.522v-33.66
	H272.264z M197.46,206.496h25.453v33.66H197.46V206.496z M314.545,240.156h-25.453v-33.66h25.453V240.156z"/>
</svg>