<!DOCTYPE svg PUBLIC "-//W3C//DTD SVG 1.1//EN" "http://www.w3.org/Graphics/SVG/1.1/DTD/svg11.dtd">
<!-- Uploaded to: SVG Repo, www.svgrepo.com, Transformed by: SVG Repo Mixer Tools -->
<svg height="800px" width="800px" version="1.1" id="Layer_1" xmlns="http://www.w3.org/2000/svg" xmlns:xlink="http://www.w3.org/1999/xlink" viewBox="0 0 512 512" xml:space="preserve" fill="#000000">
<g id="SVGRepo_bgCarrier" stroke-width="0"/>
<g id="SVGRepo_tracerCarrier" stroke-linecap="round" stroke-linejoin="round"/>
<g id="SVGRepo_iconCarrier"> <path style="fill:#75EE8B;" d="M494.722,460.501L366.772,332.55c26.531-33.87,42.35-76.534,42.35-122.893 c0.001-110.158-89.3-199.458-199.458-199.458S10.207,99.499,10.207,209.657s89.3,199.459,199.458,199.459 c46.359,0,89.024-15.819,122.893-42.35l127.95,127.95c9.448,9.448,24.766,9.448,34.214,0 C504.171,485.267,504.171,469.949,494.722,460.501z"/> <circle style="fill:#F2F2F2;" cx="209.665" cy="209.655" r="153.223"/> <g> <path style="fill:#4D4D4D;" d="M501.935,453.289L501.935,453.289L380.238,331.592c25.603-35.678,39.084-77.641,39.084-121.935 C419.323,94.052,325.271,0,209.666,0S0.008,94.052,0.008,209.658c0,115.605,94.052,209.657,209.657,209.657 c44.293,0,86.257-13.482,121.935-39.084l121.697,121.696c6.495,6.496,15.133,10.074,24.319,10.074s17.824-3.578,24.32-10.074 C515.344,488.517,515.344,466.698,501.935,453.289z M487.512,487.503c-2.644,2.643-6.157,4.099-9.895,4.099 c-3.738,0-7.252-1.455-9.894-4.099l-127.951-127.95c-1.979-1.979-4.591-2.987-7.215-2.987c-2.21,0-4.431,0.716-6.286,2.169 c-33.558,26.286-73.88,40.181-116.604,40.181c-104.357,0-189.258-84.901-189.258-189.258s84.9-189.258,189.258-189.258 S398.925,105.3,398.925,209.658c0,42.725-13.894,83.046-40.181,116.604c-3.18,4.059-2.829,9.854,0.817,13.501l127.95,127.95 C492.967,473.169,492.967,482.047,487.512,487.503z"/> <path style="fill:#4D4D4D;" d="M209.666,46.236c-90.111,0-163.422,73.311-163.422,163.422s73.311,163.421,163.422,163.421 s163.422-73.311,163.422-163.421C373.087,119.546,299.776,46.236,209.666,46.236z M209.666,352.68 c-32.067,0-61.703-10.609-85.584-28.5l56.775-56.775c3.983-3.983,3.983-10.441,0-14.425c-3.983-3.984-10.441-3.983-14.425,0 l-57.806,57.806c-5.519-5.514-10.586-11.478-15.151-17.827l87.918-87.918c3.983-3.983,3.984-10.441,0-14.424 c-3.983-3.984-10.44-3.982-14.425,0l-84.464,84.464c-10.134-19.617-15.865-41.864-15.865-65.424 c0-78.863,64.16-143.023,143.023-143.023s143.023,64.16,143.023,143.023C352.688,288.52,288.529,352.68,209.666,352.68z"/> <path style="fill:#4D4D4D;" d="M201.379,156.21l-6.99,6.99c-3.983,3.983-3.984,10.441,0,14.424 c1.992,1.992,4.602,2.987,7.212,2.987c2.61,0,5.22-0.996,7.212-2.987l6.99-6.99c3.983-3.983,3.984-10.441,0-14.424 C211.82,152.227,205.363,152.227,201.379,156.21z"/> </g> </g>
</svg>