<!DOCTYPE svg PUBLIC "-//W3C//DTD SVG 1.1//EN" "http://www.w3.org/Graphics/SVG/1.1/DTD/svg11.dtd">
<!-- Uploaded to: SVG Repo, www.svgrepo.com, Transformed by: SVG Repo Mixer Tools -->
<svg width="800px" height="800px" viewBox="0 0 1024 1024" fill="#000000" class="icon" version="1.1" xmlns="http://www.w3.org/2000/svg">
<g id="SVGRepo_bgCarrier" stroke-width="0"/>
<g id="SVGRepo_tracerCarrier" stroke-linecap="round" stroke-linejoin="round"/>
<g id="SVGRepo_iconCarrier">
<path d="M379.936 719.794c-96.128 0-186.476-37.436-254.446-105.404-140.31-140.294-140.31-368.582 0-508.892C193.458 37.53 283.808 0.11 379.92 0.11s186.476 37.42 254.43 105.388c67.986 67.968 105.422 158.334 105.438 254.448 0 96.112-37.436 186.476-105.406 254.446-67.97 67.968-158.334 105.402-254.446 105.402zM379.92 16.102c-91.834 0-178.184 35.766-243.124 100.706-134.064 134.062-134.064 352.212 0 486.278 64.94 64.956 151.29 100.718 243.138 100.718 91.834 0 178.184-35.764 243.138-100.718 64.956-64.94 100.718-151.292 100.718-243.138-0.016-91.85-35.78-178.184-100.75-243.138-64.936-64.942-151.272-100.708-243.12-100.708z" fill=""/>
<path d="M379.92 687.78c-87.57 0-169.906-34.094-231.816-96.004-61.908-61.908-96.018-144.23-96.018-231.814 0.016-87.586 34.11-169.908 96.018-231.832 61.91-61.91 144.248-96.018 231.832-96.018 87.57 0 169.89 34.094 231.8 96.002 127.8 127.832 127.816 335.83 0.032 463.662-61.926 61.91-144.264 96.004-231.848 96.004z m0.016-639.676c-83.306 0-161.628 32.438-220.524 91.332-58.896 58.896-91.318 137.218-91.334 220.524 0 83.304 32.438 161.628 91.334 220.508 58.894 58.894 137.202 91.316 220.508 91.316 83.322 0 161.644-32.422 220.54-91.316C722 458.868 722 261.02 600.428 139.42c-58.88-58.878-137.186-91.316-220.492-91.316z" fill=""/>
<path d="M124.052 367.958a7.99 7.99 0 0 1-7.996-7.996c-0.016-70.468 27.44-136.734 77.278-186.572 49.852-49.852 116.102-77.308 186.586-77.308a7.992 7.992 0 0 1 7.996 7.998 7.992 7.992 0 0 1-7.996 7.996c-66.204 0-128.442 25.786-175.28 72.624-46.822 46.822-72.592 109.058-72.592 175.264a7.992 7.992 0 0 1-7.996 7.994zM690.292 734.836a7.968 7.968 0 0 1-5.652-2.344l-72.874-72.872c-3.124-3.124-3.124-8.186 0-11.308s8.184-3.124 11.306 0l72.874 72.874a7.992 7.992 0 0 1 0 11.306 7.968 7.968 0 0 1-5.654 2.344zM746.83 678.33a7.98 7.98 0 0 1-5.654-2.342l-72.872-72.904a7.994 7.994 0 0 1 0-11.308 7.992 7.992 0 0 1 11.306 0l72.874 72.904a7.994 7.994 0 0 1-5.654 13.65z" fill=""/>
<path d="M678.986 746.174a7.994 7.994 0 0 1-5.654-13.65l79.152-79.15c3.124-3.124 8.184-3.124 11.306 0s3.124 8.184 0 11.306l-79.15 79.152a7.98 7.98 0 0 1-5.654 2.342z" fill=""/>
<path d="M978.256 887.14a7.98 7.98 0 0 1-5.654-2.342L752.484 664.68a7.992 7.992 0 0 1 0-11.306 7.992 7.992 0 0 1 11.306 0l220.12 220.118a7.994 7.994 0 0 1-5.654 13.648zM900.166 967.322a7.974 7.974 0 0 1-5.654-2.342l-221.18-221.148a7.994 7.994 0 0 1 0-11.308 7.994 7.994 0 0 1 11.308 0l221.18 221.148a7.994 7.994 0 0 1-5.654 13.65z" fill=""/>
<path d="M939.79 983.754c-17.118 0-33.188-6.67-45.278-18.774a7.994 7.994 0 0 1 0-11.308 8.028 8.028 0 0 1 11.324 0c9.058 9.09 21.116 14.088 33.954 14.088h0.016a47.534 47.534 0 0 0 33.86-14.042c9.09-9.072 14.086-21.128 14.086-33.938 0-12.804-4.996-24.864-14.086-33.954a7.992 7.992 0 0 1 0-11.306 7.992 7.992 0 0 1 11.306 0c12.104 12.104 18.774 28.174 18.774 45.26s-6.67 33.158-18.774 45.246c-12.042 12.056-28.08 18.726-45.166 18.726h-0.016zM821.016 1023.89a7.968 7.968 0 0 1-5.654-2.344 7.992 7.992 0 0 1 0-11.306l56.538-56.568a7.992 7.992 0 0 1 11.306 0 7.994 7.994 0 0 1 0 11.308l-56.538 56.566a7.96 7.96 0 0 1-5.652 2.344z" fill=""/>
<path d="M821.016 1023.89a7.968 7.968 0 0 1-5.654-2.344l-45.228-45.26a7.992 7.992 0 0 1 0-11.306l5.652-5.654-11.306-11.306-5.654 5.652a7.992 7.992 0 0 1-11.306 0l-11.306-11.306a7.974 7.974 0 0 1-1.922-8.184l9.73-29.22-2.156-2.172-16.992 16.976a8.002 8.002 0 0 1-11.306-0.016l-22.616-22.614a7.994 7.994 0 0 1 0-11.308 7.994 7.994 0 0 1 11.308 0l16.96 16.96 16.992-16.96a8.006 8.006 0 0 1 11.306 0l11.306 11.308a8.014 8.014 0 0 1 1.938 8.184l-9.746 29.236 2.156 2.154 5.652-5.652a7.994 7.994 0 0 1 11.308 0l22.614 22.614a7.994 7.994 0 0 1 0 11.308l-5.652 5.652 39.574 39.608a7.992 7.992 0 0 1 0 11.306 7.96 7.96 0 0 1-5.652 2.344z" fill=""/>
<path d="M696.604 899.478a7.994 7.994 0 0 1-5.654-13.65l56.568-56.536a7.992 7.992 0 0 1 11.306 0 7.992 7.992 0 0 1 0 11.306l-56.566 56.538a7.964 7.964 0 0 1-5.654 2.342zM798.4 1001.276a7.994 7.994 0 0 1-5.654-13.65l5.654-5.652a7.992 7.992 0 0 1 11.306 0 7.992 7.992 0 0 1 0 11.306l-5.652 5.654a7.97 7.97 0 0 1-5.654 2.342zM956.704 910.786a7.97 7.97 0 0 1-5.654-2.342l-198.564-198.564a7.994 7.994 0 0 1 0-11.308 7.992 7.992 0 0 1 11.306 0l198.564 198.566a7.992 7.992 0 0 1-5.652 13.648z" fill=""/>
</g>
</svg>