<svg width="128" height="25" viewBox="0 0 128 25" fill="none" xmlns="http://www.w3.org/2000/svg">
<path d="M13.029 0L15.8315 8.63729H24.9003L17.5635 13.9754L20.3659 22.6127L13.029 17.2746L5.69221 22.6127L8.49463 13.9754L1.1578 8.63729H10.2266L13.029 0Z" fill="#FFB23F"/>
<path d="M37.9939 0L40.7963 8.63729H49.8651L42.5283 13.9754L45.3307 22.6127L37.9939 17.2746L30.6571 22.6127L33.4595 13.9754L26.1226 8.63729H35.1915L37.9939 0Z" fill="#FFB23F"/>
<path d="M64.9548 0L67.7572 8.63729H76.8261L69.4892 13.9754L72.2917 22.6127L64.9548 17.2746L57.618 22.6127L60.4204 13.9754L53.0836 8.63729H62.1524L64.9548 0Z" fill="#FFB23F"/>
<path d="M89.9197 0L92.7221 8.63729H101.791L94.4541 13.9754L97.2565 22.6127L89.9197 17.2746L82.5828 22.6127L85.3853 13.9754L78.0484 8.63729H87.1172L89.9197 0Z" fill="#FFB23F"/>
<path d="M114.885 0L117.687 8.63729H126.756L119.419 13.9754L122.221 22.6127L114.885 17.2746L107.548 22.6127L110.35 13.9754L103.013 8.63729H112.082L114.885 0Z" fill="#FFB23F"/>
</svg>
