<svg width="140" height="140" viewBox="0 0 140 140" fill="none" xmlns="http://www.w3.org/2000/svg">
<g clip-path="url(#clip0_135_135)">
<path d="M136.611 2.21057H3.38965V137.789H136.611V2.21057Z" fill="#4A61D9"/>
<path d="M3.38965 111.853L39.9371 59.9791L77.6634 112.442L107.137 84.7367L136.611 113.032V137.789H3.38965V111.853Z" fill="#EEEEEE" fill-opacity="0.933333"/>
<path d="M91.8109 77.6631C100.926 77.6631 108.316 70.2734 108.316 61.1578C108.316 52.0422 100.926 44.6526 91.8109 44.6526C82.6953 44.6526 75.3057 52.0422 75.3057 61.1578C75.3057 70.2734 82.6953 77.6631 91.8109 77.6631Z" fill="#FF8C29"/>
<path d="M136.611 120.105H3.38965V137.79H136.611V120.105Z" fill="#FF8C29"/>
<path d="M70.5897 2.21057H3.38965V137.789H70.5897V2.21057Z" fill="#0245AA"/>
<path d="M39.9371 59.9791L3.38965 111.853V137.789H70.5897V102.605L39.9371 59.9791Z" fill="#AAAAAA"/>
<path d="M91.8099 77.6631C100.926 77.6631 108.315 70.2734 108.315 61.1578C108.315 52.0422 100.926 44.6526 91.8099 44.6526C82.6943 44.6526 75.3047 52.0422 75.3047 61.1578C75.3047 70.2734 82.6943 77.6631 91.8099 77.6631Z" fill="#FFD1A9"/>
<path d="M75.3047 61.1578C75.3047 70.2736 82.6942 77.6631 91.8099 77.6631V44.6526C82.6945 44.6526 75.3047 52.0424 75.3047 61.1578Z" fill="#FF8C29"/>
<path d="M70.5897 120.105H3.38965V137.79H70.5897V120.105Z" fill="#FD6A33"/>
<path d="M123.642 26.8212C122.421 26.8212 121.431 25.8317 121.431 24.6107C121.431 21.929 119.249 19.7476 116.568 19.7476C113.886 19.7476 111.705 21.9294 111.705 24.6107C111.705 25.8317 110.715 26.8212 109.494 26.8212C108.274 26.8212 107.284 25.8317 107.284 24.6107C107.284 21.929 105.102 19.7476 102.421 19.7476C99.7391 19.7476 97.5577 21.9294 97.5577 24.6107C97.5577 25.8317 96.5681 26.8212 95.3471 26.8212C94.1262 26.8212 93.1366 25.8317 93.1366 24.6107C93.1366 21.929 90.9548 19.7476 88.2735 19.7476C85.5922 19.7476 83.4104 21.9294 83.4104 24.6107C83.4104 25.8317 82.4208 26.8212 81.1998 26.8212C79.9788 26.8212 78.9893 25.8317 78.9893 24.6107C78.9893 19.4914 83.1542 15.3265 88.2735 15.3265C91.104 15.3265 93.643 16.5998 95.3471 18.6037C97.0513 16.5998 99.5903 15.3265 102.421 15.3265C105.251 15.3265 107.79 16.5998 109.494 18.6037C111.199 16.5998 113.738 15.3265 116.568 15.3265C121.687 15.3265 125.852 19.4914 125.852 24.6107C125.852 25.8313 124.863 26.8212 123.642 26.8212Z" fill="white"/>
<path d="M47.0101 45.6843C45.7892 45.6843 44.7996 44.6948 44.7996 43.4738C44.7996 40.7921 42.6178 38.6107 39.9364 38.6107C37.2551 38.6107 35.0733 40.7925 35.0733 43.4738C35.0733 44.6948 34.0837 45.6843 32.8628 45.6843C31.6418 45.6843 30.6522 44.6948 30.6522 43.4738C30.6522 40.7921 28.4704 38.6107 25.7891 38.6107C23.1078 38.6107 20.926 40.7925 20.926 43.4738C20.926 44.6948 19.9364 45.6843 18.7154 45.6843C17.4945 45.6843 16.5049 44.6948 16.5049 43.4738C16.5049 38.3545 20.6698 34.1896 25.7891 34.1896C28.6196 34.1896 31.1587 35.4629 32.8628 37.4668C34.5669 35.4629 37.106 34.1896 39.9364 34.1896C45.0557 34.1896 49.2207 38.3545 49.2207 43.4738C49.2207 44.6944 48.2311 45.6843 47.0101 45.6843Z" fill="white"/>
<path d="M136.61 0H3.38889C2.16829 0 1.17871 0.989579 1.17871 2.21055V111.853V120.105V137.79C1.17871 139.011 2.16829 140 3.38926 140H136.61C137.831 140 138.821 139.011 138.821 137.79V120.105V113.032V2.21055C138.821 0.989579 137.831 0 136.61 0ZM5.59944 112.553L39.9549 63.7908L75.8683 113.733C76.2401 114.249 76.8164 114.581 77.4502 114.642C78.0839 114.704 78.713 114.489 79.1772 114.053L107.121 87.7859L134.4 113.974V117.895H5.5998L5.59944 112.553ZM134.4 4.42109V107.846L108.667 83.1425C107.819 82.3272 106.48 82.3206 105.623 83.1261L77.9857 109.105L41.7311 58.6882C41.316 58.1105 40.6476 57.7685 39.9364 57.7685C39.9328 57.7685 39.9295 57.7685 39.9258 57.7685C39.2106 57.7721 38.5415 58.1214 38.1293 58.7057L5.59944 104.877V4.42109H134.4ZM5.59944 135.579V122.316H134.399V135.579H5.59944Z" fill="black"/>
<path d="M91.8105 79.8736C102.131 79.8736 110.526 71.4778 110.526 61.1578C110.526 50.8378 102.131 42.442 91.8105 42.442C81.4905 42.442 73.0947 50.8378 73.0947 61.1578C73.0947 71.4778 81.4909 79.8736 91.8105 79.8736ZM91.8105 46.8631C99.6926 46.8631 106.105 53.2757 106.105 61.1578C106.105 69.0399 99.6926 75.4525 91.8105 75.4525C83.9284 75.4525 77.5158 69.0399 77.5158 61.1578C77.5158 53.2757 83.9284 46.8631 91.8105 46.8631Z" fill="black"/>
</g>
<defs>
<clipPath id="clip0_135_135">
<rect width="140" height="140" fill="white"/>
</clipPath>
</defs>
</svg>
